<svg xmlns="http://www.w3.org/2000/svg" version="1.1" x="0" y="0" width="30" height="30" viewBox="0 0 100 100" enable-background="new 0 0 100 100" xml:space="preserve"><path d="M100 50c0 27.7-22.3 50-50 50S0 77.7 0 50 22.3 0 50 0 100 22.3 100 50zM81.2 36.2c0-6.9-4.3-11.2-9.8-11.2-5.7 0-15.5 3.4-18.4 14.6 5.7-2.8 9.5 0.7 9.5 4.8 0 5.7-8.9 18.1-11.8 18.1-2.8 0-5-10.9-6.1-18.1-1.1-7-1.4-19.4-9.9-19.4S14.1 41 14.1 41l2.5 2.8c5.7-4.2 7.3-3.4 8.3 0l8.3 27.1c1.3 4.2 4.6 12.5 12.5 12.5C54.9 83.3 81.2 54.3 81.2 36.2z"/></svg>